<?xml version="1.0" encoding="utf-8"?>
<!-- Generator: Adobe Illustrator 17.1.0, SVG Export Plug-In . SVG Version: 6.00 Build 0)  -->
<!DOCTYPE svg PUBLIC "-//W3C//DTD SVG 1.1//EN" "http://www.w3.org/Graphics/SVG/1.1/DTD/svg11.dtd">
<svg version="1.1" id="Layer_1" xmlns="http://www.w3.org/2000/svg" xmlns:xlink="http://www.w3.org/1999/xlink" x="0px" y="0px"
	 viewBox="0 0 175 118" enable-background="new 0 0 175 118" xml:space="preserve">
<rect opacity="0" fill="#00A651" width="175" height="118"/>
<g>
	<g>
		<g>
			<path d="M62.6,11.9C51.1,0.8,36.1-4.8,22.4,6C9.7,16.1,4.2,34.5,1.7,49.7C0.3,58-0.1,66.6,0.9,74.9C2,85,7.2,94.6,13.2,102.5
				c6.3,8.2,14.9,14.6,25.4,15.6c11.5,1.2,21.7-7.8,30.8-13.3c1.3-0.8,2.5-1.5,3.8-2.1c2.8-1.4,0.9-4.4-1.8-3
				c-9.5,5-18.4,14.1-29.7,14.6c-10.4,0.4-19.3-7.8-25.2-15.4C6,84.9,3.7,69.2,5.8,52.3C7.6,38,12.1,22,22.1,11.2
				C33.7-1.4,48.2,4.9,59,15.2C60.6,16.8,64.5,13.7,62.6,11.9L62.6,11.9z"/>
		</g>
	</g>
	<g>
		<g>
			<path d="M92.7,58c2.4-3.9,5.8-8.8,11-7.4c3.7,1,6.1,5,7.7,8.2c4.3,9.1,0.4,17.2-2.9,25.8c-2.7,7.1,0.5,13.6,6.8,17.5
				c7,4.3,17.1,3.6,24.7,1.8c2.3-0.5,3.8-4.6,0.6-3.9c-9.6,2.2-24.9,2.4-28.4-9.4c-1.2-4.1,1.8-8.8,3.3-12.4c1.6-4,2.5-8,2.5-12.3
				c-0.1-7.4-3.9-15.4-10.6-18.8C99.8,43.4,92.6,51,89,56.7C87.3,59.5,91.4,60.1,92.7,58L92.7,58z"/>
		</g>
	</g>
	<g>
		<g>
			<path d="M115.5,71.1C101,63.6,85,71.7,81.9,87.6c-1.1,5.5,0.1,12.1,5.3,15.1c7.4,4.3,17.3-0.3,23.9-4c2.7-1.5,0.9-4.5-1.8-3
				c-5.3,2.9-13.5,7-19.3,3.2c-3.9-2.5-4.3-7.9-3.6-12c0.9-5.1,3.9-10,8.2-12.8c5.6-3.7,12.5-2.2,18.1,0.7
				C114.7,75.8,118,72.3,115.5,71.1L115.5,71.1z"/>
		</g>
	</g>
	<g>
		<g>
			<path d="M147.7,37.3c-0.1,17.8-5.8,38.8,5.7,54.3c2.7,3.7,7,7.3,11.9,6.1c6.3-1.6,8.2-9,9.3-14.5c0.5-2.7-4.2-1.4-4.6,0.7
				c-0.9,4.3-2.5,12.6-8.3,8.9c-3.8-2.4-6.2-6.8-8-10.8c-2.8-6.3-2.7-13.2-2.5-19.9c0.2-8.5,1.1-17.1,1.2-25.6
				C152.3,33.7,147.7,35.1,147.7,37.3L147.7,37.3z"/>
		</g>
	</g>
	<g>
		<g>
			<path d="M134.6,50.6c9.6,1.9,19.3,2.9,29.1,2.9c2.2,0,4.8-3.9,1.8-3.9c-9.8-0.1-19.5-1-29.1-2.9C134.1,46.2,131.6,50,134.6,50.6
				L134.6,50.6z"/>
		</g>
	</g>
</g>
</svg>
